# xmcd
#
# Track frame offsets:
#	150
#	15604
#	35996
#	58042
#	76922
#	97757
#	117864
#	140851
#	156231
#	174846
#	193496
#	211714
#	226268
#	245223
#	262245
#	293057
#
# Disc length: 3920 seconds
#
# Revision: 1
# Processed by: cddbd v1.5.1PL0 Copyright (c) Steve Scherf et al.
# Submitted via: audiograbber 1.83.01
#
DISCID=e80f4e10
DTITLE=Sound Choice Karaoke - SC8877
DYEAR=1900
DGENRE=
TTITLE0=Montgomery Gentry - If You Ever Stop Loving Me
TTITLE1=Brad Paisley and Allison Krauss -  Whiskey Lullaby
TTITLE2=Chris Cagle - I'd Be Lying
TTITLE3=Martina McBride - How Far
TTITLE4=Dixie Chicks - Truth #2
TTITLE5=Tim McGraw - Real Good Man
TTITLE6=Keith Urban - You'll Think Of Me
TTITLE7=Hank Williams Jr - Why Can't We All Just Get A Long Neck?
TTITLE8=Joe Nichols - If Nobody Believed In You
TTITLE9=Lonestar - Let's Be Us Again
TTITLE10=Josh Gracin - I Want To Live
TTITLE11=Norah Jones and Dolly Parton - Creepin' In
TTITLE12=Toby Keith - Whiskey Girl
TTITLE13=Gretchen Wilson - Redneck Woman
TTITLE14=Big and Rich - Wild West Show
TTITLE15=Data Track
EXTD=
EXTT0=
EXTT1=
EXTT2=
EXTT3=
EXTT4=
EXTT5=
EXTT6=
EXTT7=
EXTT8=
EXTT9=
EXTT10=
EXTT11=
EXTT12=
EXTT13=
EXTT14=
EXTT15=
PLAYORDER=
